<?xml version="1.0" encoding="UTF-8" standalone="no"?>
<svg
   width="89.5"
   height="28"
   role="img"
   aria-label="VUE.JS"
   version="1.1"
   id="svg2"
   sodipodi:docname="cloudinary1.svg"
   inkscape:version="1.3.2 (091e20e, 2023-11-25)"
   xmlns:inkscape="http://www.inkscape.org/namespaces/inkscape"
   xmlns:sodipodi="http://sodipodi.sourceforge.net/DTD/sodipodi-0.dtd"
   xmlns="http://www.w3.org/2000/svg"
   xmlns:svg="http://www.w3.org/2000/svg"
   xmlns:rdf="http://www.w3.org/1999/02/22-rdf-syntax-ns#"
   xmlns:cc="http://creativecommons.org/ns#"
   xmlns:dc="http://purl.org/dc/elements/1.1/">
  <defs
     id="defs2" />
  <sodipodi:namedview
     id="namedview2"
     pagecolor="#ffffff"
     bordercolor="#000000"
     borderopacity="0.25"
     inkscape:showpageshadow="2"
     inkscape:pageopacity="0.0"
     inkscape:pagecheckerboard="0"
     inkscape:deskcolor="#d1d1d1"
     showgrid="false"
     inkscape:zoom="4.2227874"
     inkscape:cx="37.179233"
     inkscape:cy="20.24729"
     inkscape:window-width="1368"
     inkscape:window-height="696"
     inkscape:window-x="0"
     inkscape:window-y="0"
     inkscape:window-maximized="1"
     inkscape:current-layer="svg2" />
  <title
     id="title1">VUE.JS</title>
  <g
     shape-rendering="crispEdges"
     id="g1"
     style="display:inline">
    <rect
       width="89.5"
       height="28"
       fill="#35495e"
       id="rect1"
       style="display:inline;fill:#ffffff;fill-opacity:1"
       x="0"
       y="0" />
    <path
       class="cls-1"
       d="M 11.540761,12.010105 C 10.323155,6.6386439 7.7853498,5.2086911 7.1379752,4.1978656 A 11.497666,11.497666 0 0 1 6.4301564,2.8124506 c -0.0342,0.4771812 -0.097025,0.7778042 -0.502629,1.1396672 -0.8143884,0.7261088 -4.2731522,3.5446564 -4.5642305,9.6477962 -0.2711997,5.690378 4.1832815,9.199245 4.7718032,9.561902 0.4525254,0.222685 1.003671,0.0048 1.2724837,-0.19962 2.1473134,-1.473693 5.0811752,-5.402479 4.1355652,-10.952091"
       id="path1"
       style="display:none;fill:#10aa50;stroke-width:0.0795302" />
    <path
       class="cls-2"
       d="m 6.6146684,20.131721 c -0.1121396,1.408477 -0.1924656,2.226842 -0.4771814,3.031686 0,0 0.1868957,1.340877 0.3181212,2.761285 H 6.920062 A 25.825808,25.825808 0 0 1 7.4266698,22.951063 C 6.8254206,22.65521 6.637729,21.367617 6.6146684,20.131721 Z"
       id="path2"
       style="display:none;fill:#b8c4c2;stroke-width:0.0795302" />
    <path
       class="cls-3"
       d="m 7.4258738,22.951856 v 0 C 6.818263,22.671116 6.6425038,21.356484 6.6154642,20.131721 A 57.725329,57.725329 0 0 0 6.7466865,14.059597 C 6.7148573,12.997073 6.7617985,4.2185434 6.4850347,2.9333355 a 10.680096,10.680096 0 0 0 0.6529405,1.2637351 c 0.6473746,1.0116205 3.1859758,2.4415733 4.4027858,7.8130344 0.947998,5.540068 -1.9699616,9.458515 -4.1148872,10.941751 z"
       id="path3"
       style="display:none;fill:#12924f;stroke-width:0.0795302" />
    <path
       class="cls-4"
       d="m 87.512685,21.009733 a 1.3194043,1.3194043 0 1 1 1.3194,-1.337697 1.302703,1.302703 0 0 1 -1.3194,1.337697 m 0,-2.519514 a 1.2009044,1.2009044 0 1 0 1.192948,1.204085 1.1810219,1.1810219 0 0 0 -1.192948,-1.204085 m 0.318119,2.03438 -0.340391,-0.734063 h -0.274379 v 0.734063 h -0.199619 v -1.670132 h 0.492286 c 0.366633,0 0.519333,0.15906 0.519333,0.466841 0,0.244953 -0.115316,0.39765 -0.330045,0.444573 l 0.351521,0.756332 z m -0.60682,-0.906644 h 0.288701 c 0.233818,0 0.322885,-0.07952 0.322885,-0.29267 0,-0.213141 -0.0851,-0.285514 -0.348343,-0.285514 h -0.263243 z"
       id="path4"
       style="display:none;fill:#21313c;stroke-width:0.0795302" />
    <path
       class="cls-4"
       d="m 67.875905,19.807237 c 0.357092,0.285513 1.070476,0.403218 1.699557,0.403218 0.815184,0 1.614462,-0.151108 2.395449,-0.856539 0.795298,-0.722929 1.342468,-1.829192 1.342468,-3.595557 0,-1.697172 -0.645787,-3.074632 -1.970757,-3.881067 -0.747582,-0.470023 -1.716261,-0.655328 -2.820931,-0.655328 -0.318121,0 -0.645786,0.01672 -0.831886,0.101003 a 0.43662023,0.43662023 0 0 0 -0.153495,0.238591 c -0.0334,0.302213 -0.0334,2.603813 -0.0334,3.964574 0,1.394958 0,3.340264 0.0334,3.578854 0.01748,0.202007 0.119297,0.556711 0.339595,0.705432 m -3.391163,-9.34399 c 0.288695,0 1.386208,0.0501 1.896794,0.0501 0.954359,0 1.613666,-0.0501 3.397524,-0.0501 1.495168,0 2.753332,0.403219 3.652818,1.175455 1.087971,0.941635 1.670131,2.251496 1.670131,3.847664 0,2.2682 -1.03389,3.578855 -2.073349,4.31769 -1.03389,0.773033 -2.378746,1.209653 -4.294625,1.209653 -1.019575,0 -2.770031,-0.0334 -4.231002,-0.0501 h -0.03022 c -0.0684,-0.134407 0.124858,-0.65851 0.244156,-0.672031 0.397647,-0.04454 0.502629,-0.06044 0.68555,-0.135995 0.308576,-0.126453 0.380949,-0.283923 0.415145,-0.838248 0.05091,-1.041844 0.0342,-2.2849 0.0342,-3.696558 0,-1.007647 0.01672,-2.973629 -0.01672,-3.595556 -0.05169,-0.520129 -0.271195,-0.654534 -0.715768,-0.755538 a 9.2445785,9.2445785 0 0 0 -0.954362,-0.151106 c -0.0334,-0.101004 0.227458,-0.556713 0.312554,-0.655329"
       id="path5"
       style="display:none;fill:#21313c;stroke-width:0.0795302" />
    <path
       class="cls-4"
       d="m 79.313129,11.318988 c -0.0676,0.01672 -0.152698,0.185309 -0.152698,0.268813 -0.01748,0.605224 -0.0342,2.183898 -0.0342,3.275845 a 0.10816094,0.10816094 0 0 0 0.08509,0.0843 c 0.220297,0.0167 0.764285,0.0342 1.223172,0.0342 0.645787,0 1.019578,-0.0843 1.223172,-0.185306 0.543989,-0.268812 0.795303,-0.857333 0.795303,-1.495165 0,-1.461762 -1.019574,-2.016087 -2.531444,-2.016087 a 4.5610511,4.5610511 0 0 0 -0.611586,0.0334 m 3.85721,6.720293 c 0,-1.478465 -1.087971,-2.318302 -3.076223,-2.318302 -0.0843,0 -0.715772,-0.0167 -0.866084,0.0167 -0.05091,0.0167 -0.1018,0.0501 -0.1018,0.0843 0,1.058545 -0.01748,2.754922 0.0342,3.426952 0.0342,0.285513 0.238591,0.68873 0.492293,0.806435 0.271993,0.151107 0.883582,0.184509 1.308272,0.184509 1.172272,0 2.209344,-0.654532 2.209344,-2.200597 M 76.243261,10.49585 c 0.153494,0 0.605223,0.0501 1.760798,0.0501 1.087176,0 1.970754,-0.0334 3.022141,-0.0334 1.308272,0 3.108836,0.47082 3.108836,2.419308 0,0.954359 -0.679191,1.730573 -1.562769,2.100388 -0.0509,0.0167 -0.0509,0.0501 0,0.0668 1.25737,0.31812 2.361247,1.091948 2.361247,2.570413 0,1.445062 -0.90028,2.3525 -2.208551,2.923526 -0.7953,0.353113 -1.78386,0.470022 -2.783551,0.470022 -0.764286,0 -2.812982,-0.07953 -3.951852,-0.06681 -0.119294,-0.0501 0.108956,-0.588523 0.210755,-0.67203 a 3.1318952,3.1318952 0 0 0 0.770647,-0.120885 c 0.407192,-0.100208 0.455708,-0.231433 0.506608,-0.836657 0.0342,-0.520922 0.0342,-2.385902 0.0342,-3.71326 0,-1.814876 0.01748,-3.040435 0,-3.645658 -0.01672,-0.470025 -0.186896,-0.621926 -0.509788,-0.705432 -0.254497,-0.05091 -0.679187,-0.101003 -1.018781,-0.151107 -0.08509,-0.0843 0.176558,-0.588526 0.26086,-0.655328"
       id="path6"
       style="display:none;fill:#21313c;stroke-width:0.0795302" />
    <path
       class="cls-4"
       d="m 15.303331,21.009733 a 0.7364487,0.7364487 0 0 1 -0.0517,-0.339595 0.43184841,0.43184841 0 0 1 0.0517,-0.22666 5.7722945,5.7722945 0 0 0 0.652145,-0.132816 c 0.300627,-0.07475 0.413558,-0.238589 0.431053,-0.621925 0.04931,-0.905848 0.05249,-2.605405 0.03499,-3.799948 v -0.03498 c 0,-0.128838 0,-0.303805 -0.159059,-0.427076 a 3.4150223,3.4150223 0 0 0 -0.901077,-0.39765 c -0.142362,-0.04215 -0.221096,-0.11691 -0.217119,-0.204393 0.004,-0.08748 0.09385,-0.190872 0.279151,-0.227456 0.492293,-0.0501 1.782271,-0.357886 2.288875,-0.591704 a 0.33561701,0.33561701 0 0 1 0.0676,0.23859 c 0,0.05249 -0.008,0.108162 -0.0135,0.165423 -0.0143,0.168604 -0.03022,0.360271 -0.03022,0.551142 a 0.12565756,0.12565756 0 0 0 0.213144,0.07238 c 0.964699,-0.75633 1.829192,-1.025938 2.272173,-1.025938 0.729291,0 1.297135,0.348342 1.736937,1.065703 a 0.11690925,0.11690925 0 0 0 0.09862,0.05806 0.11293274,0.11293274 0 0 0 0.09226,-0.04931 c 0.88676,-0.672825 1.765568,-1.074451 2.35409,-1.074451 1.390185,0 2.221276,1.041049 2.221276,2.783553 0,0.501039 -0.0048,1.136485 -0.0095,1.728984 -0.004,0.520127 -0.008,1.007647 -0.008,1.344854 0,0.07953 0.109753,0.308577 0.27438,0.353909 0.203598,0.09941 0.497063,0.150312 0.868466,0.213936 h 0.01431 c 0.02784,0.100207 -0.03103,0.489111 -0.08748,0.568641 -0.09226,0 -0.219504,-0.008 -0.378565,-0.01591 -0.288694,-0.01431 -0.684754,-0.0342 -1.145233,-0.0342 -0.924141,0 -1.406888,0.0175 -1.868163,0.04771 -0.03499,-0.115318 -0.04692,-0.48752 -0.0048,-0.565458 a 4.8950775,4.8950775 0 0 0 0.566253,-0.123272 c 0.294264,-0.09703 0.379361,-0.230637 0.397652,-0.621131 0.0072,-0.277559 0.06044,-2.72311 -0.0342,-3.303679 -0.08748,-0.602043 -0.540805,-1.30668 -1.532545,-1.30668 -0.368224,0 -0.962315,0.153493 -1.528568,0.582955 a 0.22268427,0.22268427 0 0 0 -0.05567,0.14395 v 0.01192 c 0.06681,0.313349 0.06681,0.679186 0.06681,1.231921 0,0.318119 0,0.64976 -0.004,0.981402 -0.004,0.674415 -0.0072,1.310655 0.004,1.791812 0,0.327665 0.198032,0.406399 0.357887,0.469228 0.08669,0.01908 0.155082,0.03579 0.224272,0.05169 0.132817,0.03261 0.271199,0.06601 0.477181,0.09862 a 0.91380081,0.91380081 0 0 1 -0.008,0.423101 0.33879821,0.33879821 0 0 1 -0.05965,0.143949 c -0.513765,-0.0175 -1.041051,-0.03261 -1.802152,-0.03261 -0.230638,0 -0.606817,0.0095 -0.939252,0.0183 -0.269605,0.0072 -0.524103,0.01431 -0.668849,0.01512 a 0.655328,0.655328 0 0 1 -0.05089,-0.292671 0.50740202,0.50740202 0 0 1 0.05328,-0.273583 l 0.204311,-0.03738 c 0.17815,-0.03181 0.332436,-0.05885 0.477181,-0.09544 0.251314,-0.07953 0.345956,-0.216322 0.364247,-0.536827 0.04931,-0.747583 0.08748,-2.902053 -0.01829,-3.441268 -0.179739,-0.865287 -0.672031,-1.304293 -1.46415,-1.304293 -0.463659,0 -1.049797,0.223479 -1.528569,0.58216 a 0.46604637,0.46604637 0 0 0 -0.140767,0.345956 c 0,0.256882 0,0.562277 0,0.889941 0,1.081609 -0.0072,2.428054 0.01908,3.010215 0.01591,0.179738 0.07953,0.392878 0.415946,0.470818 0.07397,0.02147 0.20121,0.04215 0.349134,0.06681 0.0851,0.01431 0.178148,0.02943 0.274379,0.04693 a 1.2056763,1.2056763 0 0 1 -0.04534,0.568641 c -0.147924,0 -0.330049,-0.0095 -0.538417,-0.01829 -0.318122,-0.01431 -0.715772,-0.03181 -1.165115,-0.03181 -0.531265,0 -0.901077,0.0175 -1.197724,0.03181 -0.19962,0.0095 -0.3722,0.0175 -0.54478,0.01829"
       id="path7"
       style="display:none;fill:#21313c;stroke-width:0.0795302" />
    <path
       class="cls-4"
       d="m 32.358561,14.72606 a 1.4490383,1.4490383 0 0 0 -0.811209,0.228251 c -0.590113,0.35868 -0.890737,1.075247 -0.890737,2.128225 0,1.970756 0.986969,3.347422 2.40022,3.347422 a 1.5110719,1.5110719 0 0 0 1.035481,-0.366634 c 0.434235,-0.353909 0.664872,-1.077632 0.664872,-2.090846 0,-1.941329 -0.964699,-3.246418 -2.400218,-3.246418 m 0.271991,6.434779 c -2.552917,0 -3.461943,-1.872934 -3.461943,-3.624981 0,-1.223969 0.500243,-2.180715 1.487211,-2.844792 a 4.5419637,4.5419637 0 0 1 2.297624,-0.679187 c 1.947693,0 3.308453,1.400525 3.308453,3.40707 0,1.363146 -0.543188,2.439982 -1.571515,3.112807 -0.49388,0.302215 -1.352011,0.629083 -2.05983,0.629083"
       id="path8"
       style="display:none;fill:#21313c;stroke-width:0.0795302" />
    <path
       class="cls-4"
       d="m 58.348994,14.72606 a 1.4450619,1.4450619 0 0 0 -0.812797,0.228251 c -0.590114,0.35868 -0.890736,1.075247 -0.890736,2.128225 0,1.970756 0.986969,3.347422 2.400219,3.347422 a 1.5110719,1.5110719 0 0 0 1.038664,-0.366634 c 0.434232,-0.353909 0.664073,-1.077632 0.664073,-2.090846 0,-1.941329 -0.963903,-3.246418 -2.399423,-3.246418 m 0.271996,6.434779 c -2.552918,0 -3.461947,-1.872934 -3.461947,-3.624187 0,-1.225558 0.500246,-2.181509 1.48801,-2.845586 a 4.5332154,4.5332154 0 0 1 2.296828,-0.679187 c 1.947693,0 3.308453,1.40132 3.308453,3.406274 0,1.364736 -0.543192,2.440778 -1.571515,3.112808 -0.493884,0.30301 -1.352014,0.629878 -2.059829,0.629878"
       id="path9"
       style="display:none;fill:#21313c;stroke-width:0.0795302" />
    <path
       class="cls-4"
       d="m 49.753381,14.659254 c -0.78655,0 -1.295545,0.62113 -1.295545,1.582648 0,0.96152 0.43821,2.104367 1.670131,2.104367 0.211552,0 0.594888,-0.09384 0.784965,-0.30301 0.286308,-0.263245 0.477179,-0.80723 0.477179,-1.381438 0,-1.254188 -0.610791,-2.002567 -1.632752,-2.002567 m -0.101799,6.635992 a 1.2955452,1.2955452 0 0 0 -0.636241,0.159059 c -0.622719,0.397651 -0.911414,0.795301 -0.911414,1.257371 0,0.432643 0.16781,0.77701 0.528874,1.082405 0.437418,0.370611 1.02753,0.551144 1.802948,0.551144 1.526181,0 2.21014,-0.82075 2.21014,-1.633549 0,-0.566254 -0.28392,-0.945613 -0.868467,-1.160344 -0.450143,-0.164627 -1.202495,-0.255291 -2.123453,-0.255291 m 0.1018,3.896974 c -0.916189,0 -1.57629,-0.193258 -2.140155,-0.627492 -0.548759,-0.423101 -0.795303,-1.051389 -0.795303,-1.485622 a 1.1619347,1.1619347 0 0 1 0.300623,-0.755536 c 0.15906,-0.181328 0.528877,-0.520923 1.383824,-1.10865 a 0.07316769,0.07316769 0 0 0 0.04454,-0.0676 0.07078179,0.07078179 0 0 0 -0.05408,-0.06999 c -0.703843,-0.269607 -0.916187,-0.71577 -0.980607,-0.954361 0,-0.0088 0,-0.02227 -0.0072,-0.03737 -0.01989,-0.09385 -0.03897,-0.18292 0.08907,-0.274379 0.09862,-0.06999 0.256089,-0.163831 0.42469,-0.263244 a 5.7174186,5.7174186 0 0 0 0.683162,-0.444574 0.11213744,0.11213744 0 0 0 -0.02862,-0.174967 c -1.041842,-0.349932 -1.56674,-1.12376 -1.56674,-2.306373 a 2.2928527,2.2928527 0 0 1 0.962312,-1.887248 c 0.419125,-0.331641 1.471308,-0.730087 2.152883,-0.730087 h 0.03977 c 0.70066,0.0167 1.095924,0.163833 1.643092,0.365839 a 2.6117684,2.6117684 0 0 0 0.971857,0.154289 c 0.579776,0 0.833475,-0.183715 1.051388,-0.397651 a 0.91221017,0.91221017 0 0 1 0.05567,0.300623 1.130918,1.130918 0 0 1 -0.18928,0.690322 c -0.118501,0.164627 -0.39765,0.283922 -0.652944,0.283922 -0.02624,0 -0.05169,0 -0.07953,-0.004 a 2.1425409,2.1425409 0 0 1 -0.397647,-0.06601 l -0.06522,0.02306 c -0.02067,0.03022 -0.0072,0.06363 0.0095,0.106571 a 0.13520116,0.13520116 0 0 1 0.0095,0.02624 4.6541014,4.6541014 0 0 1 0.09464,0.644193 c 0,1.236693 -0.487519,1.775111 -1.014805,2.174352 a 3.4643311,3.4643311 0 0 1 -1.749661,0.677596 v 0 c -0.0135,0 -0.07953,0.0056 -0.203598,0.0167 -0.07953,0.0072 -0.18292,0.0167 -0.198031,0.0167 h -0.01512 c -0.114522,0.03181 -0.413553,0.17417 -0.413553,0.439006 0,0.219503 0.1352,0.492291 0.781778,0.5416 l 0.418328,0.02943 c 0.852565,0.05965 1.917472,0.133611 2.418513,0.30301 a 1.6749038,1.6749038 0 0 1 1.118986,1.612075 c 0,1.109445 -0.788936,2.15288 -2.109932,2.790711 a 4.5857053,4.5857053 0 0 1 -1.99541,0.447754"
       id="path10"
       style="display:none;fill:#21313c;stroke-width:0.0795302" />
    <path
       class="cls-4"
       d="m 45.851635,20.418028 c -0.37379,-0.0501 -0.646578,-0.101003 -0.968678,-0.25211 a 0.44536856,0.44536856 0 0 1 -0.119294,-0.238591 c -0.0342,-0.520922 -0.0342,-2.032788 -0.0342,-3.022143 0,-0.80723 -0.135204,-1.511072 -0.477181,-2.016088 -0.407988,-0.571822 -0.985377,-0.907439 -1.732963,-0.907439 -0.662485,0 -1.546063,0.453322 -2.27615,1.075247 -0.01748,0.0167 -0.129635,0.123272 -0.127247,-0.04215 0.0025,-0.165424 0.02784,-0.501041 0.04374,-0.715772 a 0.36822434,0.36822434 0 0 0 -0.111344,-0.311757 c -0.477178,0.23859 -1.815672,0.556711 -2.311144,0.605224 -0.361067,0.06999 -0.452525,0.417533 -0.06681,0.537623 h 0.0056 a 3.2973178,3.2973178 0 0 1 0.874829,0.384926 c 0.152698,0.117704 0.135995,0.285513 0.135995,0.419918 0.01672,1.125351 0.01672,2.855926 -0.0342,3.796767 -0.01672,0.369815 -0.119292,0.504222 -0.391289,0.571821 l 0.02544,-0.0088 a 5.2855702,5.2855702 0 0 1 -0.629084,0.117705 c -0.0851,0.0835 -0.0851,0.571025 0,0.672028 0.170197,0 1.033894,-0.0501 1.749662,-0.0501 0.984585,0 1.494372,0.0501 1.749665,0.0501 0.102591,-0.117703 0.135996,-0.571025 0.06839,-0.672028 A 3.5788544,3.5788544 0 0 1 40.52786,20.311451 c -0.271197,-0.06681 -0.339594,-0.202007 -0.356297,-0.503426 -0.0334,-0.79053 -0.0334,-2.470204 -0.0334,-3.613053 0,-0.318119 0.0843,-0.470022 0.1861,-0.55671 0.339594,-0.302215 0.901076,-0.503426 1.393368,-0.503426 0.477182,0 0.795299,0.151108 1.03389,0.352319 a 1.4394947,1.4394947 0 0 1 0.486726,0.949589 c 0.0676,0.63624 0.0501,1.915881 0.0501,3.022144 0,0.605224 -0.0501,0.757126 -0.271199,0.823931 -0.101796,0.0501 -0.37379,0.101004 -0.696682,0.134406 -0.101799,0.101003 -0.06839,0.571027 0,0.67203 0.441393,0 0.954363,-0.0501 1.698762,-0.0501 0.934481,0 1.529364,0.0501 1.76716,0.0501 0.101798,-0.117705 0.135995,-0.556712 0.0684,-0.67203"
       id="path11"
       style="display:none;fill:#21313c;stroke-width:0.0795302" />
  </g>
  <metadata
     id="metadata2">
    <rdf:RDF>
      <cc:Work
         rdf:about="">
        <dc:title>VUE.JS</dc:title>
      </cc:Work>
    </rdf:RDF>
  </metadata>
  <path
     d="m 29.397315,12.796721 a 2.9620359,2.9620359 0 0 1 2.343361,1.157856 0.11924182,0.11924182 0 0 0 0.172814,0.01901 l 0.98677,-0.786304 a 0.1226981,0.1226981 0 0 0 0.01901,-0.172816 4.49317,4.49317 0 0 0 -3.561702,-1.750608 c -2.576659,0 -4.665983,2.220663 -4.665983,4.951128 0,2.730466 2.096236,4.951128 4.665983,4.951128 a 4.4672478,4.4672478 0 0 0 3.559974,-1.74888 0.11924182,0.11924182 0 0 0 -0.02074,-0.172814 l -0.985041,-0.777662 a 0.1226981,0.1226981 0 0 0 -0.172815,0.01901 2.9827735,2.9827735 0 0 1 -2.341632,1.15267 c -1.760978,0 -3.138307,-1.503484 -3.138307,-3.419993 0,-1.91651 1.377329,-3.421722 3.138307,-3.421722 z m 4.793867,-1.81455 h 1.23735 a 0.1226981,0.1226981 0 0 1 0.122697,0.122698 v 9.812393 a 0.12096996,0.12096996 0 0 1 -0.12097,0.12097 H 34.19291 a 0.1226981,0.1226981 0 0 1 -0.122698,-0.122698 v -9.810665 a 0.12096996,0.12096996 0 0 1 0.12097,-0.122698 z m 5.576715,3.394072 c -1.640008,0 -3.299024,1.161311 -3.299024,3.381975 0,1.951073 1.418805,3.42345 3.299024,3.42345 1.880219,0 3.312848,-1.472377 3.312848,-3.42345 0,-1.951073 -1.423988,-3.381975 -3.312848,-3.381975 z m 1.819733,3.381975 c 0,1.126748 -0.782848,1.976995 -1.819733,1.976995 -1.036886,0 -1.804181,-0.850247 -1.804181,-1.976995 0,-1.126749 0.775936,-1.935519 1.804181,-1.935519 1.028245,0 1.819733,0.831236 1.819733,1.935519 z m 8.162018,-3.240267 h -1.237351 a 0.12096996,0.12096996 0 0 0 -0.122698,0.12097 v 3.283471 c 0,1.282281 -0.884809,1.736783 -1.643464,1.736783 -0.670519,0 -1.346221,-0.506346 -1.346221,-1.63828 v -3.381974 a 0.12096996,0.12096996 0 0 0 -0.1227,-0.12097 h -1.237349 a 0.12096996,0.12096996 0 0 0 -0.120971,0.12097 v 3.542692 c 0,1.944159 0.879625,3.013879 2.478156,3.013879 0.580657,0 1.520766,-0.333531 1.873307,-1.06972 l 0.119242,0.02419 v 0.767294 a 0.1226981,0.1226981 0 0 0 0.122698,0.122699 h 1.237351 a 0.1226981,0.1226981 0 0 0 0.122697,-0.122695 v -6.27834 a 0.12096996,0.12096996 0 0 0 -0.122697,-0.120969 z m 7.59864,-3.53578 H 56.10921 a 0.12096996,0.12096996 0 0 0 -0.120971,0.122698 v 4.386026 l -0.07604,-0.12097 C 55.535465,14.763347 54.724966,14.37106 53.84707,14.37106 c -1.513853,0 -3.044987,1.166494 -3.044987,3.395798 0,1.944161 1.315116,3.409626 3.057084,3.409626 0.663606,0 1.598531,-0.266135 2.053032,-1.012692 l 0.07604,-0.124427 v 0.877897 a 0.12096996,0.12096996 0 0 0 0.120971,0.122699 h 1.239078 a 0.12096996,0.12096996 0 0 0 0.12097,-0.122699 v -9.812393 a 0.12096996,0.12096996 0 0 0 -0.12097,-0.122698 z m -1.382513,6.776047 a 1.9009565,1.9009565 0 0 1 -1.857754,1.963169 c -1.01269,0 -1.805908,-0.864071 -1.805908,-1.963169 0,-1.099099 0.793218,-1.935519 1.805908,-1.935519 a 1.9009565,1.9009565 0 0 1 1.852569,1.935519 z m 3.23681,-3.240267 h 1.23735 a 0.12096996,0.12096996 0 0 1 0.120971,0.12097 v 6.278341 a 0.12096996,0.12096996 0 0 1 -0.120971,0.12097 h -1.23735 a 0.1226981,0.1226981 0 0 1 -0.122698,-0.122698 v -6.276613 a 0.1226981,0.1226981 0 0 1 0.122698,-0.12097 z m 0.623859,-3.337043 a 0.96257524,0.96257524 0 0 0 -0.983313,0.962576 0.9746722,0.9746722 0 0 0 0.983313,0.964303 0.9573908,0.9573908 0 0 0 0.969488,-0.964303 0.94702199,0.94702199 0 0 0 -0.969488,-0.962576 z m 5.830753,3.195335 c -0.542637,0 -1.50694,0.292057 -1.875034,1.06972 l -0.119242,-0.02419 v -0.78285 a 0.12096996,0.12096996 0 0 0 -0.122698,-0.120969 h -1.23735 a 0.12096996,0.12096996 0 0 0 -0.120971,0.120969 v 6.278342 a 0.12096996,0.12096996 0 0 0 0.120971,0.122698 h 1.23735 a 0.1226981,0.1226981 0 0 0 0.122698,-0.122698 v -3.283471 c 0,-1.271912 0.884808,-1.728142 1.643463,-1.728142 0.670519,0 1.346223,0.50289 1.346223,1.624454 v 3.387159 a 0.1226981,0.1226981 0 0 0 0.122698,0.122698 h 1.240806 a 0.1226981,0.1226981 0 0 0 0.122698,-0.122698 V 17.376301 C 68.135409,15.44251 67.254,14.376247 65.657197,14.376247 Z m 9.872877,0.141708 h -1.23735 a 0.12096996,0.12096996 0 0 0 -0.122699,0.12097 v 0.864072 l -0.07431,-0.12097 c -0.378464,-0.606578 -1.188962,-0.998867 -2.073771,-0.998867 -1.512125,0 -3.044987,1.166495 -3.044987,3.395799 0,1.944161 1.315117,3.409625 3.058812,3.409625 0.661878,0 1.596804,-0.266134 2.053033,-1.012691 l 0.07431,-0.124426 v 0.865799 a 0.1226981,0.1226981 0 0 0 0.122698,0.122699 h 1.237351 a 0.12096996,0.12096996 0 0 0 0.12097,-0.122699 v -6.278341 a 0.12096996,0.12096996 0 0 0 -0.114058,-0.12097 z m -1.382515,3.240267 a 1.9009565,1.9009565 0 0 1 -1.862937,1.963169 c -1.012691,0 -1.804181,-0.864071 -1.804181,-1.963169 0,-1.099099 0.79149,-1.935519 1.804181,-1.935519 a 1.9009565,1.9009565 0 0 1 1.859481,1.935519 z m 7.028356,-3.217801 a 2.3606423,2.3606423 0 0 0 -0.888266,-0.172815 c -0.822596,0 -1.420533,0.492521 -1.728143,1.425718 l -0.1106,-0.01554 v -1.138851 a 0.12096996,0.12096996 0 0 0 -0.122699,-0.12097 h -1.23735 a 0.12096996,0.12096996 0 0 0 -0.122698,0.12097 v 6.278342 a 0.1226981,0.1226981 0 0 0 0.122698,0.122698 h 1.251176 a 0.12096996,0.12096996 0 0 0 0.12097,-0.122698 v -2.142897 c 0,-2.557651 1.021331,-2.937841 1.631369,-2.937841 a 1.9009565,1.9009565 0 0 1 0.748286,0.155532 0.12442625,0.12442625 0 0 0 0.105413,0 0.12096996,0.12096996 0 0 0 0.06221,-0.08295 l 0.245402,-1.228712 a 0.1226981,0.1226981 0 0 0 -0.07777,-0.13998 z m 6.865913,0.03111 a 0.11924182,0.11924182 0 0 0 -0.101958,-0.05357 h -1.332402 a 0.12442625,0.12442625 0 0 0 -0.114052,0.07777 l -1.612362,4.178647 -1.627912,-4.178648 a 0.12442625,0.12442625 0 0 0 -0.114059,-0.07777 h -1.358316 a 0.11924182,0.11924182 0 0 0 -0.100231,0.05357 0.12096996,0.12096996 0 0 0 -0.0121,0.114057 l 2.4194,5.941354 -1.335857,3.471838 a 0.1226981,0.1226981 0 0 0 0.114057,0.172814 h 1.296107 a 0.11924182,0.11924182 0 0 0 0.11233,-0.07777 l 3.777726,-9.504781 a 0.11924182,0.11924182 0 0 0 -0.0104,-0.117515 z M 18.575688,12.399252 A 6.9782384,6.9782384 0 0 0 11.977641,7.5414429 6.8468998,6.8468998 0 0 0 5.9066763,11.148077 5.1636892,5.1636892 0 0 0 4.6606865,20.922449 l 0.1296114,0.05875 h 0.00864 v -1.46892 A 3.8520292,3.8520292 0 0 1 6.404389,12.399246 L 6.7673,12.361226 6.9262879,12.034607 a 5.5559774,5.5559774 0 0 1 5.0513551,-3.1849622 5.6510252,5.6510252 0 0 1 5.452288,4.3203562 l 0.124428,0.49425 h 0.518442 a 3.2022477,3.2022477 0 0 1 3.136578,3.19015 c 0,1.21834 -0.703354,2.215478 -1.900956,2.720096 v 1.392882 l 0.0864,-0.02765 c 1.92515,-0.630772 3.121025,-2.196469 3.121025,-4.085328 A 4.5260046,4.5260046 0 0 0 18.575683,12.39925 Z"
     fill="#3448c5"
     id="path1-5"
     style="stroke-width:0.172814" />
  <path
     d="m 9.444184,20.811845 0.2868723,0.286872 a 0.05702869,0.05702869 0 0 1 -0.039753,0.09678 H 7.4274377 A 1.0368854,1.0368854 0 0 1 6.3905512,20.158608 v -4.396393 a 0.05702869,0.05702869 0 0 0 -0.057024,-0.05702 H 5.8496496 a 0.05702869,0.05702869 0 0 1 -0.04148,-0.09678 l 1.9216945,-1.921693 a 0.05702869,0.05702869 0 0 1 0.081223,0 l 1.9199674,1.921693 a 0.05702869,0.05702869 0 0 1 -0.039753,0.09678 H 9.2005086 a 0.05875684,0.05875684 0 0 0 -0.058751,0.05702 v 4.320355 a 1.0368854,1.0368854 0 0 0 0.302424,0.729276 z m 4.246046,0 0.288599,0.286872 a 0.05702869,0.05702869 0 0 1 -0.04148,0.09678 H 11.678668 A 1.0368854,1.0368854 0 0 1 10.641781,20.158608 V 16.87341 a 0.05875684,0.05875684 0 0 0 -0.05702,-0.05875 h -0.489064 a 0.05702869,0.05702869 0 0 1 -0.03974,-0.09678 l 1.919967,-1.918237 a 0.05702869,0.05702869 0 0 1 0.08122,0 l 1.921695,1.914782 a 0.05702869,0.05702869 0 0 1 -0.04148,0.09678 h -0.490791 a 0.05875684,0.05875684 0 0 0 -0.05702,0.05875 v 3.212616 a 1.0368854,1.0368854 0 0 0 0.300696,0.729277 z m 4.247774,0 0.286871,0.286872 a 0.05702869,0.05702869 0 0 1 -0.03975,0.09678 h -2.265596 a 1.0368854,1.0368854 0 0 1 -1.036884,-1.036886 v -2.182643 a 0.05702869,0.05702869 0 0 0 -0.05702,-0.05702 h -0.483879 a 0.05702869,0.05702869 0 0 1 -0.03975,-0.0985 l 1.921694,-1.919966 a 0.05530056,0.05530056 0 0 1 0.0795,0 l 1.921696,1.919966 a 0.05702869,0.05702869 0 0 1 -0.03975,0.0985 h -0.492522 a 0.05702869,0.05702869 0 0 0 -0.05702,0.05702 v 2.106605 a 1.0368854,1.0368854 0 0 0 0.302425,0.729276 z"
     fill="#3448c5"
     id="path2-6"
     style="stroke-width:0.172814" />
</svg>
