<?xml version="1.0" encoding="UTF-8" standalone="no"?>
<svg
   width="89.5"
   height="28"
   role="img"
   aria-label="VUE.JS"
   version="1.1"
   id="svg2"
   sodipodi:docname="javascript1.svg"
   inkscape:version="1.3.2 (091e20e, 2023-11-25)"
   xmlns:inkscape="http://www.inkscape.org/namespaces/inkscape"
   xmlns:sodipodi="http://sodipodi.sourceforge.net/DTD/sodipodi-0.dtd"
   xmlns="http://www.w3.org/2000/svg"
   xmlns:svg="http://www.w3.org/2000/svg"
   xmlns:rdf="http://www.w3.org/1999/02/22-rdf-syntax-ns#"
   xmlns:cc="http://creativecommons.org/ns#"
   xmlns:dc="http://purl.org/dc/elements/1.1/">
  <defs
     id="defs2" />
  <sodipodi:namedview
     id="namedview2"
     pagecolor="#ffffff"
     bordercolor="#000000"
     borderopacity="0.25"
     inkscape:showpageshadow="2"
     inkscape:pageopacity="0.0"
     inkscape:pagecheckerboard="0"
     inkscape:deskcolor="#d1d1d1"
     showgrid="false"
     inkscape:zoom="4.2227874"
     inkscape:cx="37.179233"
     inkscape:cy="20.24729"
     inkscape:window-width="1368"
     inkscape:window-height="696"
     inkscape:window-x="0"
     inkscape:window-y="0"
     inkscape:window-maximized="1"
     inkscape:current-layer="svg2" />
  <title
     id="title1">VUE.JS</title>
  <g
     shape-rendering="crispEdges"
     id="g1"
     style="display:inline">
    <rect
       width="89.5"
       height="28"
       fill="#35495e"
       id="rect1"
       style="display:inline;fill:#c2bc12;fill-opacity:1"
       x="0"
       y="0" />
    <path
       class="cls-1"
       d="M 11.540761,12.010105 C 10.323155,6.6386439 7.7853498,5.2086911 7.1379752,4.1978656 A 11.497666,11.497666 0 0 1 6.4301564,2.8124506 c -0.0342,0.4771812 -0.097025,0.7778042 -0.502629,1.1396672 -0.8143884,0.7261088 -4.2731522,3.5446564 -4.5642305,9.6477962 -0.2711997,5.690378 4.1832815,9.199245 4.7718032,9.561902 0.4525254,0.222685 1.003671,0.0048 1.2724837,-0.19962 2.1473134,-1.473693 5.0811752,-5.402479 4.1355652,-10.952091"
       id="path1"
       style="display:none;fill:#10aa50;stroke-width:0.0795302" />
    <path
       class="cls-2"
       d="m 6.6146684,20.131721 c -0.1121396,1.408477 -0.1924656,2.226842 -0.4771814,3.031686 0,0 0.1868957,1.340877 0.3181212,2.761285 H 6.920062 A 25.825808,25.825808 0 0 1 7.4266698,22.951063 C 6.8254206,22.65521 6.637729,21.367617 6.6146684,20.131721 Z"
       id="path2"
       style="display:none;fill:#b8c4c2;stroke-width:0.0795302" />
    <path
       class="cls-3"
       d="m 7.4258738,22.951856 v 0 C 6.818263,22.671116 6.6425038,21.356484 6.6154642,20.131721 A 57.725329,57.725329 0 0 0 6.7466865,14.059597 C 6.7148573,12.997073 6.7617985,4.2185434 6.4850347,2.9333355 a 10.680096,10.680096 0 0 0 0.6529405,1.2637351 c 0.6473746,1.0116205 3.1859758,2.4415733 4.4027858,7.8130344 0.947998,5.540068 -1.9699616,9.458515 -4.1148872,10.941751 z"
       id="path3"
       style="display:none;fill:#12924f;stroke-width:0.0795302" />
    <path
       class="cls-4"
       d="m 87.512685,21.009733 a 1.3194043,1.3194043 0 1 1 1.3194,-1.337697 1.302703,1.302703 0 0 1 -1.3194,1.337697 m 0,-2.519514 a 1.2009044,1.2009044 0 1 0 1.192948,1.204085 1.1810219,1.1810219 0 0 0 -1.192948,-1.204085 m 0.318119,2.03438 -0.340391,-0.734063 h -0.274379 v 0.734063 h -0.199619 v -1.670132 h 0.492286 c 0.366633,0 0.519333,0.15906 0.519333,0.466841 0,0.244953 -0.115316,0.39765 -0.330045,0.444573 l 0.351521,0.756332 z m -0.60682,-0.906644 h 0.288701 c 0.233818,0 0.322885,-0.07952 0.322885,-0.29267 0,-0.213141 -0.0851,-0.285514 -0.348343,-0.285514 h -0.263243 z"
       id="path4"
       style="display:none;fill:#21313c;stroke-width:0.0795302" />
    <path
       class="cls-4"
       d="m 67.875905,19.807237 c 0.357092,0.285513 1.070476,0.403218 1.699557,0.403218 0.815184,0 1.614462,-0.151108 2.395449,-0.856539 0.795298,-0.722929 1.342468,-1.829192 1.342468,-3.595557 0,-1.697172 -0.645787,-3.074632 -1.970757,-3.881067 -0.747582,-0.470023 -1.716261,-0.655328 -2.820931,-0.655328 -0.318121,0 -0.645786,0.01672 -0.831886,0.101003 a 0.43662023,0.43662023 0 0 0 -0.153495,0.238591 c -0.0334,0.302213 -0.0334,2.603813 -0.0334,3.964574 0,1.394958 0,3.340264 0.0334,3.578854 0.01748,0.202007 0.119297,0.556711 0.339595,0.705432 m -3.391163,-9.34399 c 0.288695,0 1.386208,0.0501 1.896794,0.0501 0.954359,0 1.613666,-0.0501 3.397524,-0.0501 1.495168,0 2.753332,0.403219 3.652818,1.175455 1.087971,0.941635 1.670131,2.251496 1.670131,3.847664 0,2.2682 -1.03389,3.578855 -2.073349,4.31769 -1.03389,0.773033 -2.378746,1.209653 -4.294625,1.209653 -1.019575,0 -2.770031,-0.0334 -4.231002,-0.0501 h -0.03022 c -0.0684,-0.134407 0.124858,-0.65851 0.244156,-0.672031 0.397647,-0.04454 0.502629,-0.06044 0.68555,-0.135995 0.308576,-0.126453 0.380949,-0.283923 0.415145,-0.838248 0.05091,-1.041844 0.0342,-2.2849 0.0342,-3.696558 0,-1.007647 0.01672,-2.973629 -0.01672,-3.595556 -0.05169,-0.520129 -0.271195,-0.654534 -0.715768,-0.755538 a 9.2445785,9.2445785 0 0 0 -0.954362,-0.151106 c -0.0334,-0.101004 0.227458,-0.556713 0.312554,-0.655329"
       id="path5"
       style="display:none;fill:#21313c;stroke-width:0.0795302" />
    <path
       class="cls-4"
       d="m 79.313129,11.318988 c -0.0676,0.01672 -0.152698,0.185309 -0.152698,0.268813 -0.01748,0.605224 -0.0342,2.183898 -0.0342,3.275845 a 0.10816094,0.10816094 0 0 0 0.08509,0.0843 c 0.220297,0.0167 0.764285,0.0342 1.223172,0.0342 0.645787,0 1.019578,-0.0843 1.223172,-0.185306 0.543989,-0.268812 0.795303,-0.857333 0.795303,-1.495165 0,-1.461762 -1.019574,-2.016087 -2.531444,-2.016087 a 4.5610511,4.5610511 0 0 0 -0.611586,0.0334 m 3.85721,6.720293 c 0,-1.478465 -1.087971,-2.318302 -3.076223,-2.318302 -0.0843,0 -0.715772,-0.0167 -0.866084,0.0167 -0.05091,0.0167 -0.1018,0.0501 -0.1018,0.0843 0,1.058545 -0.01748,2.754922 0.0342,3.426952 0.0342,0.285513 0.238591,0.68873 0.492293,0.806435 0.271993,0.151107 0.883582,0.184509 1.308272,0.184509 1.172272,0 2.209344,-0.654532 2.209344,-2.200597 M 76.243261,10.49585 c 0.153494,0 0.605223,0.0501 1.760798,0.0501 1.087176,0 1.970754,-0.0334 3.022141,-0.0334 1.308272,0 3.108836,0.47082 3.108836,2.419308 0,0.954359 -0.679191,1.730573 -1.562769,2.100388 -0.0509,0.0167 -0.0509,0.0501 0,0.0668 1.25737,0.31812 2.361247,1.091948 2.361247,2.570413 0,1.445062 -0.90028,2.3525 -2.208551,2.923526 -0.7953,0.353113 -1.78386,0.470022 -2.783551,0.470022 -0.764286,0 -2.812982,-0.07953 -3.951852,-0.06681 -0.119294,-0.0501 0.108956,-0.588523 0.210755,-0.67203 a 3.1318952,3.1318952 0 0 0 0.770647,-0.120885 c 0.407192,-0.100208 0.455708,-0.231433 0.506608,-0.836657 0.0342,-0.520922 0.0342,-2.385902 0.0342,-3.71326 0,-1.814876 0.01748,-3.040435 0,-3.645658 -0.01672,-0.470025 -0.186896,-0.621926 -0.509788,-0.705432 -0.254497,-0.05091 -0.679187,-0.101003 -1.018781,-0.151107 -0.08509,-0.0843 0.176558,-0.588526 0.26086,-0.655328"
       id="path6"
       style="display:none;fill:#21313c;stroke-width:0.0795302" />
    <path
       class="cls-4"
       d="m 15.303331,21.009733 a 0.7364487,0.7364487 0 0 1 -0.0517,-0.339595 0.43184841,0.43184841 0 0 1 0.0517,-0.22666 5.7722945,5.7722945 0 0 0 0.652145,-0.132816 c 0.300627,-0.07475 0.413558,-0.238589 0.431053,-0.621925 0.04931,-0.905848 0.05249,-2.605405 0.03499,-3.799948 v -0.03498 c 0,-0.128838 0,-0.303805 -0.159059,-0.427076 a 3.4150223,3.4150223 0 0 0 -0.901077,-0.39765 c -0.142362,-0.04215 -0.221096,-0.11691 -0.217119,-0.204393 0.004,-0.08748 0.09385,-0.190872 0.279151,-0.227456 0.492293,-0.0501 1.782271,-0.357886 2.288875,-0.591704 a 0.33561701,0.33561701 0 0 1 0.0676,0.23859 c 0,0.05249 -0.008,0.108162 -0.0135,0.165423 -0.0143,0.168604 -0.03022,0.360271 -0.03022,0.551142 a 0.12565756,0.12565756 0 0 0 0.213144,0.07238 c 0.964699,-0.75633 1.829192,-1.025938 2.272173,-1.025938 0.729291,0 1.297135,0.348342 1.736937,1.065703 a 0.11690925,0.11690925 0 0 0 0.09862,0.05806 0.11293274,0.11293274 0 0 0 0.09226,-0.04931 c 0.88676,-0.672825 1.765568,-1.074451 2.35409,-1.074451 1.390185,0 2.221276,1.041049 2.221276,2.783553 0,0.501039 -0.0048,1.136485 -0.0095,1.728984 -0.004,0.520127 -0.008,1.007647 -0.008,1.344854 0,0.07953 0.109753,0.308577 0.27438,0.353909 0.203598,0.09941 0.497063,0.150312 0.868466,0.213936 h 0.01431 c 0.02784,0.100207 -0.03103,0.489111 -0.08748,0.568641 -0.09226,0 -0.219504,-0.008 -0.378565,-0.01591 -0.288694,-0.01431 -0.684754,-0.0342 -1.145233,-0.0342 -0.924141,0 -1.406888,0.0175 -1.868163,0.04771 -0.03499,-0.115318 -0.04692,-0.48752 -0.0048,-0.565458 a 4.8950775,4.8950775 0 0 0 0.566253,-0.123272 c 0.294264,-0.09703 0.379361,-0.230637 0.397652,-0.621131 0.0072,-0.277559 0.06044,-2.72311 -0.0342,-3.303679 -0.08748,-0.602043 -0.540805,-1.30668 -1.532545,-1.30668 -0.368224,0 -0.962315,0.153493 -1.528568,0.582955 a 0.22268427,0.22268427 0 0 0 -0.05567,0.14395 v 0.01192 c 0.06681,0.313349 0.06681,0.679186 0.06681,1.231921 0,0.318119 0,0.64976 -0.004,0.981402 -0.004,0.674415 -0.0072,1.310655 0.004,1.791812 0,0.327665 0.198032,0.406399 0.357887,0.469228 0.08669,0.01908 0.155082,0.03579 0.224272,0.05169 0.132817,0.03261 0.271199,0.06601 0.477181,0.09862 a 0.91380081,0.91380081 0 0 1 -0.008,0.423101 0.33879821,0.33879821 0 0 1 -0.05965,0.143949 c -0.513765,-0.0175 -1.041051,-0.03261 -1.802152,-0.03261 -0.230638,0 -0.606817,0.0095 -0.939252,0.0183 -0.269605,0.0072 -0.524103,0.01431 -0.668849,0.01512 a 0.655328,0.655328 0 0 1 -0.05089,-0.292671 0.50740202,0.50740202 0 0 1 0.05328,-0.273583 l 0.204311,-0.03738 c 0.17815,-0.03181 0.332436,-0.05885 0.477181,-0.09544 0.251314,-0.07953 0.345956,-0.216322 0.364247,-0.536827 0.04931,-0.747583 0.08748,-2.902053 -0.01829,-3.441268 -0.179739,-0.865287 -0.672031,-1.304293 -1.46415,-1.304293 -0.463659,0 -1.049797,0.223479 -1.528569,0.58216 a 0.46604637,0.46604637 0 0 0 -0.140767,0.345956 c 0,0.256882 0,0.562277 0,0.889941 0,1.081609 -0.0072,2.428054 0.01908,3.010215 0.01591,0.179738 0.07953,0.392878 0.415946,0.470818 0.07397,0.02147 0.20121,0.04215 0.349134,0.06681 0.0851,0.01431 0.178148,0.02943 0.274379,0.04693 a 1.2056763,1.2056763 0 0 1 -0.04534,0.568641 c -0.147924,0 -0.330049,-0.0095 -0.538417,-0.01829 -0.318122,-0.01431 -0.715772,-0.03181 -1.165115,-0.03181 -0.531265,0 -0.901077,0.0175 -1.197724,0.03181 -0.19962,0.0095 -0.3722,0.0175 -0.54478,0.01829"
       id="path7"
       style="display:none;fill:#21313c;stroke-width:0.0795302" />
    <path
       class="cls-4"
       d="m 32.358561,14.72606 a 1.4490383,1.4490383 0 0 0 -0.811209,0.228251 c -0.590113,0.35868 -0.890737,1.075247 -0.890737,2.128225 0,1.970756 0.986969,3.347422 2.40022,3.347422 a 1.5110719,1.5110719 0 0 0 1.035481,-0.366634 c 0.434235,-0.353909 0.664872,-1.077632 0.664872,-2.090846 0,-1.941329 -0.964699,-3.246418 -2.400218,-3.246418 m 0.271991,6.434779 c -2.552917,0 -3.461943,-1.872934 -3.461943,-3.624981 0,-1.223969 0.500243,-2.180715 1.487211,-2.844792 a 4.5419637,4.5419637 0 0 1 2.297624,-0.679187 c 1.947693,0 3.308453,1.400525 3.308453,3.40707 0,1.363146 -0.543188,2.439982 -1.571515,3.112807 -0.49388,0.302215 -1.352011,0.629083 -2.05983,0.629083"
       id="path8"
       style="display:none;fill:#21313c;stroke-width:0.0795302" />
    <path
       class="cls-4"
       d="m 58.348994,14.72606 a 1.4450619,1.4450619 0 0 0 -0.812797,0.228251 c -0.590114,0.35868 -0.890736,1.075247 -0.890736,2.128225 0,1.970756 0.986969,3.347422 2.400219,3.347422 a 1.5110719,1.5110719 0 0 0 1.038664,-0.366634 c 0.434232,-0.353909 0.664073,-1.077632 0.664073,-2.090846 0,-1.941329 -0.963903,-3.246418 -2.399423,-3.246418 m 0.271996,6.434779 c -2.552918,0 -3.461947,-1.872934 -3.461947,-3.624187 0,-1.225558 0.500246,-2.181509 1.48801,-2.845586 a 4.5332154,4.5332154 0 0 1 2.296828,-0.679187 c 1.947693,0 3.308453,1.40132 3.308453,3.406274 0,1.364736 -0.543192,2.440778 -1.571515,3.112808 -0.493884,0.30301 -1.352014,0.629878 -2.059829,0.629878"
       id="path9"
       style="display:none;fill:#21313c;stroke-width:0.0795302" />
    <path
       class="cls-4"
       d="m 49.753381,14.659254 c -0.78655,0 -1.295545,0.62113 -1.295545,1.582648 0,0.96152 0.43821,2.104367 1.670131,2.104367 0.211552,0 0.594888,-0.09384 0.784965,-0.30301 0.286308,-0.263245 0.477179,-0.80723 0.477179,-1.381438 0,-1.254188 -0.610791,-2.002567 -1.632752,-2.002567 m -0.101799,6.635992 a 1.2955452,1.2955452 0 0 0 -0.636241,0.159059 c -0.622719,0.397651 -0.911414,0.795301 -0.911414,1.257371 0,0.432643 0.16781,0.77701 0.528874,1.082405 0.437418,0.370611 1.02753,0.551144 1.802948,0.551144 1.526181,0 2.21014,-0.82075 2.21014,-1.633549 0,-0.566254 -0.28392,-0.945613 -0.868467,-1.160344 -0.450143,-0.164627 -1.202495,-0.255291 -2.123453,-0.255291 m 0.1018,3.896974 c -0.916189,0 -1.57629,-0.193258 -2.140155,-0.627492 -0.548759,-0.423101 -0.795303,-1.051389 -0.795303,-1.485622 a 1.1619347,1.1619347 0 0 1 0.300623,-0.755536 c 0.15906,-0.181328 0.528877,-0.520923 1.383824,-1.10865 a 0.07316769,0.07316769 0 0 0 0.04454,-0.0676 0.07078179,0.07078179 0 0 0 -0.05408,-0.06999 c -0.703843,-0.269607 -0.916187,-0.71577 -0.980607,-0.954361 0,-0.0088 0,-0.02227 -0.0072,-0.03737 -0.01989,-0.09385 -0.03897,-0.18292 0.08907,-0.274379 0.09862,-0.06999 0.256089,-0.163831 0.42469,-0.263244 a 5.7174186,5.7174186 0 0 0 0.683162,-0.444574 0.11213744,0.11213744 0 0 0 -0.02862,-0.174967 c -1.041842,-0.349932 -1.56674,-1.12376 -1.56674,-2.306373 a 2.2928527,2.2928527 0 0 1 0.962312,-1.887248 c 0.419125,-0.331641 1.471308,-0.730087 2.152883,-0.730087 h 0.03977 c 0.70066,0.0167 1.095924,0.163833 1.643092,0.365839 a 2.6117684,2.6117684 0 0 0 0.971857,0.154289 c 0.579776,0 0.833475,-0.183715 1.051388,-0.397651 a 0.91221017,0.91221017 0 0 1 0.05567,0.300623 1.130918,1.130918 0 0 1 -0.18928,0.690322 c -0.118501,0.164627 -0.39765,0.283922 -0.652944,0.283922 -0.02624,0 -0.05169,0 -0.07953,-0.004 a 2.1425409,2.1425409 0 0 1 -0.397647,-0.06601 l -0.06522,0.02306 c -0.02067,0.03022 -0.0072,0.06363 0.0095,0.106571 a 0.13520116,0.13520116 0 0 1 0.0095,0.02624 4.6541014,4.6541014 0 0 1 0.09464,0.644193 c 0,1.236693 -0.487519,1.775111 -1.014805,2.174352 a 3.4643311,3.4643311 0 0 1 -1.749661,0.677596 v 0 c -0.0135,0 -0.07953,0.0056 -0.203598,0.0167 -0.07953,0.0072 -0.18292,0.0167 -0.198031,0.0167 h -0.01512 c -0.114522,0.03181 -0.413553,0.17417 -0.413553,0.439006 0,0.219503 0.1352,0.492291 0.781778,0.5416 l 0.418328,0.02943 c 0.852565,0.05965 1.917472,0.133611 2.418513,0.30301 a 1.6749038,1.6749038 0 0 1 1.118986,1.612075 c 0,1.109445 -0.788936,2.15288 -2.109932,2.790711 a 4.5857053,4.5857053 0 0 1 -1.99541,0.447754"
       id="path10"
       style="display:none;fill:#21313c;stroke-width:0.0795302" />
    <path
       class="cls-4"
       d="m 45.851635,20.418028 c -0.37379,-0.0501 -0.646578,-0.101003 -0.968678,-0.25211 a 0.44536856,0.44536856 0 0 1 -0.119294,-0.238591 c -0.0342,-0.520922 -0.0342,-2.032788 -0.0342,-3.022143 0,-0.80723 -0.135204,-1.511072 -0.477181,-2.016088 -0.407988,-0.571822 -0.985377,-0.907439 -1.732963,-0.907439 -0.662485,0 -1.546063,0.453322 -2.27615,1.075247 -0.01748,0.0167 -0.129635,0.123272 -0.127247,-0.04215 0.0025,-0.165424 0.02784,-0.501041 0.04374,-0.715772 a 0.36822434,0.36822434 0 0 0 -0.111344,-0.311757 c -0.477178,0.23859 -1.815672,0.556711 -2.311144,0.605224 -0.361067,0.06999 -0.452525,0.417533 -0.06681,0.537623 h 0.0056 a 3.2973178,3.2973178 0 0 1 0.874829,0.384926 c 0.152698,0.117704 0.135995,0.285513 0.135995,0.419918 0.01672,1.125351 0.01672,2.855926 -0.0342,3.796767 -0.01672,0.369815 -0.119292,0.504222 -0.391289,0.571821 l 0.02544,-0.0088 a 5.2855702,5.2855702 0 0 1 -0.629084,0.117705 c -0.0851,0.0835 -0.0851,0.571025 0,0.672028 0.170197,0 1.033894,-0.0501 1.749662,-0.0501 0.984585,0 1.494372,0.0501 1.749665,0.0501 0.102591,-0.117703 0.135996,-0.571025 0.06839,-0.672028 A 3.5788544,3.5788544 0 0 1 40.52786,20.311451 c -0.271197,-0.06681 -0.339594,-0.202007 -0.356297,-0.503426 -0.0334,-0.79053 -0.0334,-2.470204 -0.0334,-3.613053 0,-0.318119 0.0843,-0.470022 0.1861,-0.55671 0.339594,-0.302215 0.901076,-0.503426 1.393368,-0.503426 0.477182,0 0.795299,0.151108 1.03389,0.352319 a 1.4394947,1.4394947 0 0 1 0.486726,0.949589 c 0.0676,0.63624 0.0501,1.915881 0.0501,3.022144 0,0.605224 -0.0501,0.757126 -0.271199,0.823931 -0.101796,0.0501 -0.37379,0.101004 -0.696682,0.134406 -0.101799,0.101003 -0.06839,0.571027 0,0.67203 0.441393,0 0.954363,-0.0501 1.698762,-0.0501 0.934481,0 1.529364,0.0501 1.76716,0.0501 0.101798,-0.117705 0.135995,-0.556712 0.0684,-0.67203"
       id="path11"
       style="display:none;fill:#21313c;stroke-width:0.0795302" />
  </g>
  <metadata
     id="metadata2">
    <rdf:RDF>
      <cc:Work
         rdf:about="">
        <dc:title>VUE.JS</dc:title>
      </cc:Work>
    </rdf:RDF>
  </metadata>
  <g
     transform="matrix(0.5496704,0,0,0.5496704,-211.0849,0.00158178)"
     id="g3652"
     style="display:inline">
    <path
       style="opacity:0.85;fill:#101010"
       inkscape:connector-curvature="0"
       d="m 512.87,26.15 c 1.4,-0.02 2.81,-0.04 4.22,-0.05 0.02,0.78 0.05,2.33 0.07,3.11 -1.44,0 -2.88,-0.01 -4.31,-0.01 0,-0.76 0.02,-2.28 0.02,-3.05 z"
       id="path3654" />
  </g>
  <path
     id="path3664"
     d="m 23.866224,14.727252 c 1.412652,0.01096 2.830801,0.01649 4.254448,0.02198 -0.120926,2.528484 0.373776,5.155909 -0.340796,7.618432 -0.923445,1.769937 -3.221068,1.423645 -4.875576,1.456626 -0.06596,-0.560665 -0.131921,-1.121328 -0.192385,-1.681993 0.950931,-0.07695 1.984311,0.109933 2.858287,-0.379272 0.56616,-1.753449 0.313311,-3.627825 0.170397,-5.430743 -0.483709,0.01097 -1.445633,0.02199 -1.929343,0.02748 0.01649,-0.406756 0.03848,-1.225765 0.05497,-1.632521 z"
     inkscape:connector-curvature="0"
     style="display:inline;fill:#131313;stroke-width:0.439736" />
  <path
     id="path3666"
     d="m 52.168752,15.419837 c 1.665502,-1.286229 3.853189,-0.758546 5.70558,-0.258346 -0.0055,0.489207 -0.01097,1.46762 -0.01097,1.956827 -1.434639,-0.577154 -4.161005,-1.835899 -4.523788,0.538677 1.357687,0.412253 2.792327,0.654108 4.023589,1.390667 1.308215,1.06636 0.939936,3.490406 -0.566162,4.221468 -1.71497,1.01689 -3.748751,0.461722 -5.557167,0.09344 -0.104439,-0.753048 -0.208874,-1.5006 -0.302318,-2.253648 1.522587,0.670598 4.606237,2.259145 5.062464,-0.307815 -1.528084,-0.577154 -3.429943,-0.659605 -4.540278,-1.978814 -0.489207,-1.121328 -0.406756,-2.682392 0.709075,-3.402459 z"
     inkscape:connector-curvature="0"
     style="display:inline;fill:#131313;stroke-width:0.439736" />
  <path
     id="path3668"
     d="m 82.560028,15.040564 c 0.643115,0 1.291726,0 1.945834,0 0.01649,0.621127 0.03848,1.242255 0.06596,1.863382 0.494705,0.0055 1.489607,0.01649 1.989808,0.02199 0.01096,0.379272 0.02748,1.132322 0.03848,1.506097 -0.505697,-0.0055 -1.51709,-0.01649 -2.022787,-0.02748 0.02748,1.258746 -0.296821,2.632921 0.3353,3.792725 0.472715,0.04947 1.418149,0.142915 1.890865,0.192386 -0.04947,2.314112 -2.687888,1.264242 -4.084051,0.90146 -0.126424,-1.412653 -0.186888,-2.825307 -0.186888,-4.243456 -0.357285,-0.5002 -0.71457,-1.005897 -1.06636,-1.506097 0.269339,-0.247351 0.808016,-0.742055 1.077353,-0.989407 0.0055,-0.379273 0.01096,-1.137817 0.01649,-1.511594 z"
     inkscape:connector-curvature="0"
     style="display:inline;fill:#131313;stroke-width:0.439736" />
  <path
     id="path3670"
     d="m 29.835645,16.975404 c 1.791924,-0.09344 4.298421,-0.758546 5.425246,1.093844 0.401259,1.835898 0.14841,3.743255 0.208875,5.612135 -0.80252,-0.07146 -1.605038,-0.148412 -2.40206,-0.219869 -0.912453,0.07695 -1.98431,0.753049 -2.825305,0.148411 -1.396163,-0.670597 -1.41815,-3.144115 0.04947,-3.743255 1.066361,-0.439736 2.231662,-0.516691 3.347493,-0.780532 -1.060865,-1.099341 -2.566962,-0.681591 -3.90266,-0.538677 0.02748,-0.395763 0.07695,-1.181792 0.09895,-1.572057 m 1.74795,3.776235 c -0.06046,0.533181 -0.115429,1.066361 -0.1649,1.605038 0.610134,-0.03298 1.220268,-0.06047 1.835899,-0.09344 0.04398,-0.577154 0.09344,-1.154307 0.142913,-1.731462 -0.610134,0.07146 -1.21477,0.148411 -1.813912,0.219868 z"
     inkscape:connector-curvature="0"
     style="display:inline;fill:#131313;stroke-width:0.439736" />
  <path
     id="path3672"
     d="m 36.288774,16.783019 c 0.527684,0.10444 1.588548,0.313312 2.116232,0.417749 0.555166,1.275236 0.934439,2.616432 1.473116,3.90266 0.450729,-1.374176 0.868479,-2.764842 1.275236,-4.155507 0.527682,-0.01096 1.588546,-0.02748 2.116231,-0.03848 -0.747553,2.358086 -1.583051,4.688688 -2.517491,6.986311 -0.725566,-0.09344 -1.440137,-0.247351 -2.132721,-0.450729 -1.0004,-2.132721 -1.660004,-4.408357 -2.330603,-6.662007 z"
     inkscape:connector-curvature="0"
     style="display:inline;fill:#131313;stroke-width:0.439736" />
  <path
     id="path3674"
     d="m 43.951179,18.536467 c 0.153909,-0.522186 0.329803,-1.044373 0.522187,-1.555567 1.703978,-0.247352 4.012594,-0.610134 5.183392,0.983911 0.401259,1.901859 0.153908,3.869678 0.192385,5.799022 -0.808016,-0.109932 -1.610535,-0.219869 -2.413053,-0.329803 -1.440137,0.764043 -3.842196,0.489207 -3.809216,-1.539076 -0.274836,-2.407556 2.731862,-2.440536 4.364383,-2.759346 -0.98391,-1.319209 -2.687888,-0.621127 -4.040078,-0.599141 m 1.989808,2.264643 c -0.06046,0.494703 -0.115431,0.994903 -0.170399,1.489606 0.604638,0.01649 1.209275,0.03298 1.81941,0.04398 0.05497,-0.610134 0.109932,-1.214772 0.1649,-1.824906 -0.604636,0.09344 -1.209274,0.192385 -1.813911,0.291326 z"
     inkscape:connector-curvature="0"
     style="display:inline;fill:#131313;stroke-width:0.439736" />
  <path
     id="path3676"
     d="m 58.654863,20.33389 c -0.170397,-2.990208 3.633321,-4.556768 5.908956,-2.962723 0.05497,0.423246 0.159405,1.275234 0.208875,1.69848 -1.044373,-0.329802 -2.11623,-1.077353 -3.237558,-0.571656 -1.187288,1.132321 -0.939937,4.007098 1.071857,3.836699 0.555168,-0.175894 1.660004,-0.527684 2.215172,-0.703579 -0.09893,0.472717 -0.291326,1.418151 -0.38477,1.88537 -2.380073,1.121329 -5.96942,-0.203378 -5.782532,-3.182591 z"
     inkscape:connector-curvature="0"
     style="display:inline;fill:#131313;stroke-width:0.439736" />
  <path
     id="path3678"
     d="m 65.685147,16.761032 c 0.824505,0.219868 1.665502,0.439736 2.495504,0.676094 0.621127,-0.225364 1.247751,-0.445232 1.879872,-0.670597 0.02749,0.527683 0.09344,1.58305 0.126424,2.110735 -0.791524,0.03848 -1.58305,0.07695 -2.363582,0.115429 -0.05497,1.577555 -0.07146,3.149612 -0.08244,4.727166 -0.51669,0.0055 -1.555567,0.01096 -2.072258,0.01649 -0.02748,-2.325106 -0.03298,-4.650212 0.01649,-6.975318 z"
     inkscape:connector-curvature="0"
     style="display:inline;fill:#131313;stroke-width:0.439736" />
  <path
     id="path3680"
     d="m 74.622789,16.909443 c 1.517089,0.340796 3.045174,0.236359 4.556766,-0.06596 2.369079,0.489207 2.424047,3.847693 1.522587,5.606638 -0.747551,1.51709 -2.577955,1.374176 -3.990606,1.297222 0.01096,0.802519 0.02198,1.599541 0.03298,2.40206 -0.527685,-0.0055 -1.594045,-0.01649 -2.127226,-0.02748 0,-3.067161 -0.0055,-6.139819 0.0055,-9.212477 m 2.143715,1.616032 c -0.02199,1.280732 -0.03298,2.566961 -0.02199,3.847692 0.681592,-0.186887 1.561065,-0.05497 2.077755,-0.643114 0.384768,-1.044373 0.08244,-2.171198 0.0055,-3.248552 -0.687088,0.01096 -1.374177,0.02748 -2.061265,0.04398 z"
     inkscape:connector-curvature="0"
     style="display:inline;fill:#131313;stroke-width:0.439736" />
  <g
     transform="matrix(0.5496704,0,0,0.5496704,-211.0849,0.00158178)"
     id="g3688"
     style="display:inline">
    <path
       style="fill:#131313"
       inkscape:connector-curvature="0"
       d="m 513.23,30.79 c 0.89,0 2.67,0 3.55,0 0.06,4.13 0.06,8.25 0,12.38 -0.89,0 -2.66,0 -3.55,0 -0.07,-4.12 -0.07,-8.25 0,-12.38 z"
       id="path3690" />
  </g>
  <g
     transform="matrix(0.20622729,0,0,0.20622729,-87.460915,-6.2907061)"
     id="g3768"
     style="display:inline">
    <path
       style="fill:#d6ba32"
       inkscape:connector-curvature="0"
       d="m 439.03,51.2 c 9.97,-0.42 19.96,0.12 29.94,-0.05 11.01,-0.35 22.01,-0.06 33.03,-0.02 8.74,0.02 17.48,-0.04 26.22,0.03 -2.75,30.33 -5.52,60.66 -8.07,91.01 -11.71,3.33 -23.43,6.61 -35.14,9.92 -1.5,0.62 -3.04,0.04 -4.48,-0.35 -11.13,-3.2 -22.26,-6.37 -33.41,-9.45 -2.9,-30.34 -5.63,-60.71 -8.09,-91.09 m 44.78,7.91 c -0.41,14.96 -0.06,29.92 -0.18,44.88 0.11,13.68 -0.2,27.37 0.16,41.05 9.84,-2.32 19.55,-5.17 29.26,-7.98 2.44,-25.97 4.82,-51.94 6.86,-77.94 -12.03,-0.12 -24.07,0.02 -36.1,-0.01 m -12.52,58.42 c -5.78,-1.58 -11.49,-3.4 -17.35,-4.65 -0.17,3.48 -0.11,6.96 0.29,10.42 8.58,2.09 16.98,4.84 25.57,6.89 0.06,-19.81 -0.03,-39.63 0.04,-59.44 -2.8,-0.07 -5.6,-0.11 -8.4,-0.17 -0.32,15.64 -0.02,31.3 -0.15,46.95 z"
       id="path3770" />
  </g>
  <g
     transform="matrix(0.20622729,0,0,0.20622729,-87.460915,-6.2907061)"
     id="g3796"
     style="display:inline">
    <path
       style="fill:#ffda3e"
       inkscape:connector-curvature="0"
       d="m 483.81,59.11 c 12.03,0.03 24.07,-0.11 36.1,0.01 -2.04,26 -4.42,51.97 -6.86,77.94 -9.71,2.81 -19.42,5.66 -29.26,7.98 -0.36,-13.68 -0.05,-27.37 -0.16,-41.05 0.12,-14.96 -0.23,-29.92 0.18,-44.88 m 3.37,11.63 c 0.04,12.88 0.05,25.77 0,38.65 5.88,-0.95 11.74,-2.04 17.6,-3.11 -0.09,3 -0.21,6 -0.34,9 -5.71,1.52 -11.41,3.09 -17.15,4.5 -0.09,3.46 -0.1,6.92 -0.07,10.39 7.23,-1.62 14.35,-3.66 21.53,-5.47 0.9,-0.42 2.63,-0.37 2.55,-1.78 0.87,-9.26 1.41,-18.56 2.25,-27.84 -5.95,0.49 -11.84,1.49 -17.79,1.9 -0.05,-5.26 -0.06,-10.52 0.02,-15.78 6.26,0 12.51,0 18.77,0.01 0.4,-3.51 0.75,-7.03 1.02,-10.55 -9.46,0.04 -18.93,-0.09 -28.39,0.08 z"
       id="path3798" />
  </g>
  <path
     id="path3806"
     d="m 9.7319425,17.947186 c 0.026809,-3.227456 -0.035061,-6.456975 0.030931,-9.6823701 0.5774365,0.01238 1.1548725,0.02062 1.7323095,0.03506 -0.01443,4.0853621 0.0041,8.1727861 -0.0083,12.2581481 -1.7714879,-0.422764 -3.5037973,-0.98989 -5.2732274,-1.420903 -0.082491,-0.713548 -0.094865,-1.431217 -0.059805,-2.148888 1.2084918,0.257782 2.3860496,0.633116 3.5780436,0.958955 z"
     inkscape:connector-curvature="0"
     style="display:inline;fill:#ebebeb;stroke-width:0.164982" />
</svg>
