<?xml version="1.0" encoding="UTF-8" standalone="no"?>
<svg
   width="89.5"
   height="28"
   role="img"
   aria-label="VUE.JS"
   version="1.1"
   id="svg2"
   xmlns="http://www.w3.org/2000/svg"
   xmlns:svg="http://www.w3.org/2000/svg"
   xmlns:rdf="http://www.w3.org/1999/02/22-rdf-syntax-ns#"
   xmlns:cc="http://creativecommons.org/ns#"
   xmlns:dc="http://purl.org/dc/elements/1.1/">
  <defs
     id="defs2" />
  <title
     id="title1">VUE.JS</title>
  <g
     shape-rendering="crispEdges"
     id="g1">
    <rect
       width="89.5"
       height="28"
       fill="#35495e"
       id="rect1"
       style="fill:#f9f9f9" />
  </g>
  <path
     d="m 31.657367,16.004689 h 2.941436 c 0.413585,0 0.748729,0.338709 0.748729,0.752298 0,0.417145 -0.335144,0.752292 -0.748729,0.752292 h -3.547552 c -0.05705,0 -0.110527,0.0214 -0.149744,0.05703 l -1.069617,0.923435 c -0.164008,0.142614 -0.06418,0.41002 0.149748,0.41002 h 4.438897 c 0,0 0.0036,0 0.0036,-0.0033 0,-0.0033 0.0036,-0.0033 0.0036,-0.0033 0.05704,0.0033 0.110527,0.0071 0.167571,0.0071 1.176576,0 2.132098,-0.95909 2.132098,-2.142792 0,-1.123093 -0.859256,-2.046528 -1.957393,-2.135665 0,0 -0.0036,0 -0.0036,-0.0033 0,-0.0033 0,-0.0033 -0.0036,-0.0033 h -3.166057 c -0.413585,0 -0.748729,-0.338716 -0.748729,-0.752298 0,-0.417152 0.335144,-0.752299 0.748729,-0.752299 h 3.540423 c 0.05704,0 0.114092,-0.0214 0.156877,-0.06062 l 0.994739,-0.923435 c 0.156879,-0.146176 0.05348,-0.40645 -0.156876,-0.40645 h -4.47455 c 0,0 0,0 0,0 0,0 0,0 0,0 -0.01782,0 -0.03922,0 -0.05705,0 -1.176576,0 -2.132097,0.959083 -2.132097,2.142792 0,1.183708 0.955521,2.142791 2.132097,2.142791 0.01782,0 0.03566,0 0.05705,0 z"
     id="path1"
     style="stroke-width:0.0356537" />
  <path
     d="m 48.778319,11.715536 c -0.128352,0 -0.23175,0.103396 -0.23175,0.235314 v 6.717178 c 0,0.128355 0.103398,0.235314 0.23175,0.235314 h 5.383724 c 0.06418,0 0.124789,-0.02852 0.17114,-0.07487 l 0.673855,-0.723776 c 0.13905,-0.149745 0.03565,-0.395755 -0.171137,-0.395755 H 50.13673 c -0.128356,0 -0.23175,-0.103395 -0.23175,-0.23532 v -5.526337 c 0,-0.128355 -0.103395,-0.235314 -0.23175,-0.235314 h -0.894911 z"
     id="path2"
     style="stroke-width:0.0356537" />
  <path
     class="st1"
     d="m 40.157232,11.715536 c 0,0 0,0 0,0 0,0.0033 0,0.0033 0,0 -0.688118,0.03211 -1.240752,0.584725 -1.272842,1.272846 0,0 0,0 0,0 0,0 0,0 0,0 0,0 0,0 0,0 v 4.517334 c 0,0 0,0 0,0 0,0 0,0 0,0 0,0.01781 0,0.03922 0,0.05703 0,0.716643 0.563332,1.301362 1.272842,1.329884 0,0 0,0 0,0 v 0 0 c 0,0 0,0 0,0 h 4.884569 c 0,0 0,0 0,0 v 0 0 0 c 0.705945,-0.03211 1.272842,-0.61681 1.272842,-1.329884 0,-0.01781 0,-0.03922 0,-0.05703 0,0 0,0 0,0 0,0 0,0 0,0 v -4.513771 c 0,0 0,0 0,0 0,0 0,0 0,0 -0.02852,-0.688121 -0.581158,-1.244317 -1.269276,-1.272839 0,0 0,0 0,0 0,0 0,0 0,0 h -4.888135 z m 0.912737,1.276409 v 0 0 c -0.0036,0 -0.0036,0 0,0 -0.43141,0.01781 -0.777252,0.367232 -0.795081,0.802205 0,0 0,0 0,0 0,0 0,0 0,0 v 2.841614 c 0,0 0,0 0,0 0,0 0,0 0,0 0,0.0107 0,0.02493 0,0.03563 0,0.449237 0.352973,0.820032 0.795081,0.83786 0,0 0,0 0,0 v 0 0 0 h 3.062661 v 0 0 0 c 0,0 0,0 0,0 0.442108,-0.01781 0.795079,-0.388623 0.795079,-0.83786 0,-0.0107 0,-0.02493 0,-0.03563 v 0 0 0 c 0,0 0,0 0,0 V 13.79415 c 0,0 0,0 0,0 0,0 0,0 0,0 -0.01781,-0.434973 -0.363669,-0.780815 -0.795079,-0.802205 0,0 0,0 0,0 v 0 0 0 z"
     id="path3"
     style="clip-rule:evenodd;fill-rule:evenodd;stroke-width:0.0356537" />
  <path
     class="st1"
     d="m 62.83305,18.668028 c 0,0.128355 0.103394,0.235314 0.231749,0.235314 h 0.912738 c 0.128352,0 0.231749,-0.103396 0.231749,-0.235314 v -5.558429 c 0,0 0,0 0,0 v 0 0 c 0,0 0,0 0,0 0,-0.01781 0,-0.03922 0,-0.05703 0,-0.716636 -0.559766,-1.301362 -1.258579,-1.329884 0,0 0,0 0,0 0,0 0,0 0,0 h -4.688476 c 0,0 0,0 0,0 0,0 0,0 0,0 -0.01781,0 -0.03922,0 -0.05705,0 -0.72734,0 -1.315627,0.59542 -1.315627,1.333454 0,0.01781 0,0.03922 0,0.05703 0,0 0,0 0,0 0,0 0,0 0,0 v 5.558429 c 0,0.128349 0.103398,0.235314 0.23175,0.235314 h 0.912737 c 0.128356,0 0.23175,-0.103396 0.23175,-0.235314 v -2.313934 c 0,-0.128356 0.103397,-0.235314 0.23175,-0.235314 h 4.114448 c 0.128355,0 0.231749,0.103396 0.231749,0.235314 v 2.310365 z m -4.574385,-3.825651 v -1.155185 c 0,-0.449238 0.360106,-0.812907 0.802211,-0.812907 h 2.973529 c 0.442105,0 0.802207,0.363669 0.802207,0.812907 v 1.155185 c 0,0.128356 -0.103394,0.235314 -0.231747,0.235314 h -4.11445 c -0.128353,0 -0.23175,-0.103395 -0.23175,-0.235314 z"
     id="path4"
     style="clip-rule:evenodd;fill-rule:evenodd;stroke-width:0.0356537" />
  <path
     class="st1"
     d="m 82.103925,18.903342 c -0.128349,0 -0.231745,-0.103396 -0.231745,-0.235314 V 16.3541 c 0,-0.128355 -0.103395,-0.23532 -0.231751,-0.23532 h -4.160801 c -0.128353,0 -0.231749,0.103395 -0.231749,0.23532 v 2.313928 c 0,0.128355 -0.103395,0.235314 -0.231748,0.235314 h -0.919869 c -0.128354,0 -0.231749,-0.103396 -0.231749,-0.235314 v -5.558429 0 0 c 0,0 0,0 0,0 0,0 0,0 0,0 0,-0.01781 0,-0.03922 0,-0.05703 0,-0.734464 0.595418,-1.333447 1.329886,-1.333447 0.01781,0 0.03922,0 0.05705,0 0,0 0,0 0,0 0,0 0,0 0,0 h 4.738389 c 0,0 0,0 0,0 0,0 0,0 0,0 0.705948,0.03211 1.272846,0.616811 1.272846,1.329885 0,0.01781 0,0.03922 0,0.05703 0,0 0,0 0,0 0,0 0,0 0,0 0,0 0,0 0,0 v 5.558429 c 0,0.128349 -0.103402,0.235314 -0.231751,0.235314 h -0.927004 z m -4.856046,-5.21615 v 1.155185 c 0,0.128356 0.103396,0.235314 0.231749,0.235314 h 4.160801 c 0.128356,0 0.231751,-0.103395 0.231751,-0.235314 v -1.155185 c 0,-0.449238 -0.363669,-0.812907 -0.809344,-0.812907 H 78.05722 c -0.449236,0 -0.809341,0.363669 -0.809341,0.812907 z"
     id="path5"
     style="clip-rule:evenodd;fill-rule:evenodd;stroke-width:0.0356537" />
  <path
     d="m 67.646313,11.715536 c 0.06774,0 0.131918,0.02852 0.174702,0.08201 l 4.093055,4.881009 c 0.139051,0.164004 0.406453,0.06415 0.406453,-0.153315 v -4.574386 c 0,-0.128349 0.103398,-0.235314 0.23175,-0.235314 h 0.91274 c 0.128353,0 0.231747,0.103396 0.231747,0.235314 v 6.717178 c 0,0.128355 -0.103394,0.235314 -0.231747,0.235314 h -1.133792 c -0.0035,0 -0.0071,-0.0033 -0.0071,-0.0071 0,-0.0033 0,-0.0033 -0.0035,-0.0071 l -4.164432,-4.845378 c -0.13905,-0.164011 -0.406453,-0.06062 -0.406453,0.153308 v 4.474554 c 0,0.128355 -0.103395,0.235314 -0.23175,0.235314 h -0.91987 c -0.128353,0 -0.23175,-0.103396 -0.23175,-0.235314 v -6.720741 c 0,-0.128355 0.103397,-0.235314 0.23175,-0.235314 z"
     id="path6"
     style="stroke-width:0.0356537" />
  <path
     d="M 8.2435219,19.149357 C 8.3576114,19.035266 8.5109168,18.971082 8.6713644,18.971082 H 23.521169 c 0.270969,0 0.406453,0.328021 0.213921,0.516985 l -2.934305,2.934307 c -0.114095,0.114091 -0.267405,0.178269 -0.427847,0.178269 H 5.5231377 c -0.270979,0 -0.406469,-0.328014 -0.213921,-0.516978 z"
     id="path7"
     style="stroke-width:0.0356537" />
  <path
     d="M 8.2435219,8.19651 C 8.3576114,8.082419 8.5109168,8.018241 8.6713644,8.018241 H 23.521169 c 0.270969,0 0.406453,0.328015 0.213921,0.516978 l -2.934305,2.930739 c -0.114095,0.114097 -0.267405,0.178268 -0.427847,0.178268 H 5.5231377 c -0.270979,0 -0.406469,-0.328007 -0.213921,-0.516978 z"
     id="path8"
     style="stroke-width:0.0356537" />
  <path
     d="M 20.800785,13.637279 C 20.68669,13.523188 20.53338,13.45901 20.372938,13.45901 H 5.5231377 c -0.270979,0 -0.406469,0.328014 -0.213921,0.516978 l 2.9343052,2.930745 c 0.1140895,0.114091 0.2673949,0.178268 0.4278425,0.178268 H 23.521169 c 0.270969,0 0.406453,-0.328014 0.213921,-0.516984 z"
     id="path9"
     style="stroke-width:0.0356537" />
  <metadata
     id="metadata2">
    <rdf:RDF>
      <cc:Work
         rdf:about="">
        <dc:title>VUE.JS</dc:title>
      </cc:Work>
    </rdf:RDF>
  </metadata>
</svg>
